<svg data-v-0dd9719b="" version="1.0" xmlns="http://www.w3.org/2000/svg" xmlns:xlink="http://www.w3.org/1999/xlink" width="100%" height="100%" viewBox="0 0 340.000000 250.000000" preserveAspectRatio="xMidYMid meet" color-interpolation-filters="sRGB" style="margin: auto;"> <rect data-v-0dd9719b="" x="0" y="0" width="100%" height="100%" fill="#000000" fill-opacity="1" class="background"></rect> <rect data-v-0dd9719b="" x="0" y="0" width="100%" height="100%" fill="url(#watermark)" fill-opacity="1" class="watermarklayer"></rect> <g data-v-0dd9719b="" class="iconmbgsvg" transform="translate(62.785003662109375,63.700958251953125)"><g fill="#ffffff" hollow-target="textRect"><g transform="translate(45.964996337890625,0)" mask="url(#439e6a1d-c48e-4502-9705-b1df06a34489)"><g><rect fill="#ffffff" fill-opacity="0" stroke-width="2" x="0" y="0" width="122.5" height="122.59807846277022" class="image-rect"></rect> <svg x="0" y="0" width="122.5" height="122.59807846277022" filtersec="colorsb5745786347" class="image-svg-svg primary" style="overflow: visible;"><svg fill="#ffffff" xmlns="http://www.w3.org/2000/svg" viewBox="5.015323638916016 4.975105285644531 89.96699523925781 90.03902435302734" x="0px" y="0px"><path d="m 49.998819,4.9751055 c -24.821867,0 -44.9834934,20.1710675 -44.9834934,45.0195135 0,24.848447 20.1616264,45.019514 44.9834934,45.019514 24.821866,0 44.983493,-20.171067 44.983493,-45.019514 0,-24.848446 -20.161627,-45.0195135 -44.983493,-45.0195135 z m 0,3.0318545 c 23.226908,0 42.019464,18.787331 42.019464,41.987659 0,23.200328 -18.792556,41.987659 -42.019464,41.987659 -23.226908,0 -42.0194648,-18.787331 -42.0194648,-41.987659 0,-23.200328 18.7925568,-41.987659 42.0194648,-41.987659 z" color="#000"></path></svg></svg> <!----></g></g> <g transform="translate(0,38.001041412353516)"><g data-gra="path-name" fill-rule="" class="tp-name" transform="translate(0,0)"><g transform="scale(1)"><g><path d="M25.29-26.59C22.18-31.23 18.27-31.95 13.77-31.95 8.59-31.95 1.67-29.88 1.8-23.22 1.8-17.41 7.69-16.25 13.46-15.12 18.63-14.13 23.85-13.09 23.8-8.37 23.8-2.79 17.64-1.71 13.77-1.71 9.9-1.71 4.95-3.6 3.01-7.42L0.85-6.34C3.28-1.53 8.87 0.49 13.77 0.49 19.04 0.49 26.19-1.21 26.23-8.32 26.23-15.12 19.93-16.2 13.86-17.37 8.55-18.36 4.23-19.3 4.23-23.31 4.23-28.35 10.08-29.7 13.77-29.7 17.32-29.65 21.02-29.11 23.31-25.43ZM66.55 0L66.55-13.32C66.55-18.86 62.69-22.68 57.24-22.68 53.82-22.68 50.35-20.84 49-17.19 47.7-21.15 44.14-22.68 40.77-22.68 37.89-22.68 35.05-21.46 33.52-18.54L33.48-22.23 31.41-22.23 31.41 0 33.61 0 33.61-13.18C33.61-17.46 36.49-20.56 40.72-20.56 44.95-20.56 47.88-17.46 47.88-13.18L47.88 0 50.08 0 50.08-13.18C50.08-17.46 53.01-20.61 57.24-20.61 61.47-20.61 64.35-17.59 64.35-13.32L64.35 0ZM91.93-22.23L91.93-17.37C90.09-20.84 86.44-22.5 82.84-22.5 76.63-22.5 71.55-17.91 71.55-11.12 71.55-4.32 76.63 0.36 82.84 0.36 86.44 0.36 89.77-1.26 91.93-4.72L91.93 0 94.14 0C94.14-7.42 94.14-14.8 94.14-22.23ZM82.84-20.38C95.22-20.38 95.22-1.8 82.84-1.8 77.8-1.8 73.75-5.54 73.75-11.12 73.75-16.7 77.8-20.38 82.84-20.38ZM100.12-22.23L100.12 0 102.33 0 102.33-12.96C102.33-17.01 105.52-20.34 109.66-20.38 110.97-20.38 112.27-20.07 113.44-19.35L114.43-21.15C112.95-22.05 111.33-22.5 109.66-22.45 106.83-22.45 103.68-21.29 102.28-18.27L102.19-22.23ZM122.08-28.71L122.08-22.23 117.36-22.23 117.36-20.38 122.08-20.38 122.08-6.84C122.08-2.48 123.61 0.32 128.34 0.32 129.73 0.32 131.13-0.14 132.52-0.81L131.76-2.61C130.63-2.07 129.42-1.71 128.34-1.71 124.87-1.71 124.24-3.82 124.24-6.84L124.24-20.38 131.8-20.38 131.8-22.23 124.24-22.23 124.24-28.93ZM139.09-22.32L139.09 0 136.89 0 136.89-22.32ZM136.26-29.47C136.26-27.13 139.81-27.13 139.81-29.47 139.81-31.81 136.26-31.81 136.26-29.47ZM145.39-22.23L145.39 0 147.6 0 147.6-12.38C147.6-16.96 150.79-20.43 155.38-20.47 160.2-20.52 163.3-17.82 163.3-12.78L163.3 0 165.51 0 165.51-12.82C165.51-18.99 161.41-22.63 155.47-22.63 152.37-22.59 149.26-21.33 147.55-18.27L147.55-22.23ZM181.3 0.32C184.86 0.32 188.73-1.13 190.89-3.96L189.31-5.22C187.65-3.01 184.23-1.84 181.3-1.84 176.71-1.84 172.71-4.86 172.26-10.08L192.28-10.08C193.14-18.77 187.56-22.59 181.3-22.59 175.05-22.59 170.01-17.77 170.01-11.12 170.01-4.05 175.05 0.32 181.3 0.32ZM172.26-12.01C172.75-17.46 176.71-20.56 181.3-20.56 186.66-20.56 190.26-17.5 190.3-12.01ZM198.76-22.23L196.11-22.23 196.11-22.14 204.07-11.52 195.48-0.09 195.48 0 198.09 0 205.38-9.95 212.67 0 215.28 0 215.28-0.09 206.69-11.52 214.65-22.14 214.65-22.23 211.99-22.23 205.38-13.14Z" transform="translate(-0.8500000238418579, 31.950000762939453)"></path></g> <!----> <!----> <!----> <!----> <!----> <!----> <!----></g></g> <g data-gra="path-slogan" fill-rule="" class="tp-slogan" fill="#ffffff" transform="translate(-10.205001831054688,37.44000244140625)"><!----> <!----> <g transform="scale(1, 1)"><g transform="scale(1)"><path d="M1.08 0L1.08-7.87L2.11-7.87L4.96-2.93L5.81-1.30L5.86-1.30Q5.82-1.90 5.78-2.54Q5.74-3.18 5.74-3.80L5.74-3.80L5.74-7.87L6.68-7.87L6.68 0L5.65 0L2.80-4.96L1.94-6.58L1.90-6.58Q1.94-5.98 1.99-5.36Q2.03-4.74 2.03-4.12L2.03-4.12L2.03 0L1.08 0ZM11.84 0L11.84-7.87L16.38-7.87L16.38-7.03L12.84-7.03L12.84-4.56L15.83-4.56L15.83-3.71L12.84-3.71L12.84-0.85L16.50-0.85L16.50 0L11.84 0ZM20.27 0L22.56-4.07L20.42-7.87L21.53-7.87L22.60-5.86Q22.75-5.58 22.89-5.32Q23.03-5.06 23.21-4.72L23.21-4.72L23.26-4.72Q23.42-5.06 23.55-5.32Q23.68-5.58 23.82-5.86L23.82-5.86L24.86-7.87L25.92-7.87L23.77-4.02L26.06 0L24.96 0L23.81-2.12Q23.65-2.41 23.49-2.72Q23.33-3.02 23.14-3.38L23.14-3.38L23.09-3.38Q22.92-3.02 22.76-2.72Q22.61-2.41 22.46-2.12L22.46-2.12L21.32 0L20.27 0ZM31.72 0L31.72-7.03L29.34-7.03L29.34-7.87L35.10-7.87L35.10-7.03L32.72-7.03L32.72 0L31.72 0ZM44.48-3.94L44.48-3.94Q44.48-4.88 44.75-5.64Q45.02-6.40 45.51-6.92Q46.00-7.45 46.66-7.73Q47.32-8.02 48.11-8.02L48.11-8.02Q48.92-8.02 49.47-7.71Q50.02-7.40 50.36-7.04L50.36-7.04L49.80-6.41Q49.50-6.72 49.11-6.93Q48.72-7.14 48.12-7.14L48.12-7.14Q47.52-7.14 47.04-6.92Q46.56-6.70 46.22-6.28Q45.89-5.87 45.70-5.28Q45.52-4.69 45.52-3.96L45.52-3.96Q45.52-3.22 45.69-2.62Q45.86-2.03 46.19-1.61Q46.52-1.19 47.01-0.96Q47.50-0.73 48.13-0.73L48.13-0.73Q48.55-0.73 48.93-0.86Q49.31-0.98 49.55-1.20L49.55-1.20L49.55-3.25L47.88-3.25L47.88-4.08L50.46-4.08L50.46-0.77Q50.08-0.37 49.45-0.11Q48.82 0.14 48.02 0.14L48.02 0.14Q47.24 0.14 46.60-0.13Q45.95-0.41 45.48-0.93Q45.01-1.45 44.75-2.21Q44.48-2.98 44.48-3.94ZM55.34 0L55.34-7.87L59.88-7.87L59.88-7.03L56.34-7.03L56.34-4.56L59.33-4.56L59.33-3.71L56.34-3.71L56.34-0.85L60.00-0.85L60.00 0L55.34 0ZM64.67 0L64.67-7.87L65.70-7.87L68.54-2.93L69.40-1.30L69.44-1.30Q69.41-1.90 69.37-2.54Q69.32-3.18 69.32-3.80L69.32-3.80L69.32-7.87L70.27-7.87L70.27 0L69.24 0L66.38-4.96L65.53-6.58L65.48-6.58Q65.53-5.98 65.57-5.36Q65.62-4.74 65.62-4.12L65.62-4.12L65.62 0L64.67 0ZM75.43 0L75.43-7.87L79.97-7.87L79.97-7.03L76.43-7.03L76.43-4.56L79.42-4.56L79.42-3.71L76.43-3.71L76.43-0.85L80.09-0.85L80.09 0L75.43 0ZM85.75-7.07L85.75-4.14L87.07-4.14Q88.00-4.14 88.49-4.52Q88.98-4.90 88.98-5.66L88.98-5.66Q88.98-6.44 88.49-6.76Q88.00-7.07 87.07-7.07L87.07-7.07L85.75-7.07ZM90.20 0L89.08 0L87.18-3.32L85.75-3.32L85.75 0L84.76 0L84.76-7.87L87.22-7.87Q87.82-7.87 88.33-7.76Q88.84-7.64 89.20-7.38Q89.57-7.12 89.77-6.70Q89.98-6.28 89.98-5.66L89.98-5.66Q89.98-4.74 89.50-4.19Q89.02-3.64 88.21-3.43L88.21-3.43L90.20 0ZM95.59-3.20L97.96-3.20L97.58-4.40Q97.37-5.06 97.18-5.72Q96.98-6.37 96.79-7.06L96.79-7.06L96.74-7.06Q96.56-6.37 96.37-5.72Q96.18-5.06 95.96-4.40L95.96-4.40L95.59-3.20ZM98.95 0L98.21-2.40L95.34-2.40L94.58 0L93.56 0L96.23-7.87L97.36-7.87L100.02 0L98.95 0ZM105.29 0L105.29-7.03L102.91-7.03L102.91-7.87L108.67-7.87L108.67-7.03L106.30-7.03L106.30 0L105.29 0ZM113.09 0L113.09-7.87L114.08-7.87L114.08 0L113.09 0ZM122.15 0.14L122.15 0.14Q121.40 0.14 120.79-0.14Q120.17-0.43 119.72-0.97Q119.28-1.50 119.03-2.26Q118.79-3.02 118.79-3.97L118.79-3.97Q118.79-4.92 119.03-5.67Q119.28-6.42 119.72-6.94Q120.17-7.46 120.79-7.74Q121.40-8.02 122.15-8.02L122.15-8.02Q122.89-8.02 123.51-7.73Q124.13-7.45 124.58-6.93Q125.03-6.41 125.27-5.66Q125.52-4.91 125.52-3.97L125.52-3.97Q125.52-3.02 125.27-2.26Q125.03-1.50 124.58-0.97Q124.13-0.43 123.51-0.14Q122.89 0.14 122.15 0.14ZM122.15-0.73L122.15-0.73Q122.68-0.73 123.10-0.96Q123.53-1.19 123.83-1.61Q124.14-2.04 124.31-2.63Q124.48-3.23 124.48-3.97L124.48-3.97Q124.48-4.70 124.31-5.29Q124.14-5.88 123.83-6.29Q123.53-6.70 123.10-6.92Q122.68-7.14 122.15-7.14L122.15-7.14Q121.62-7.14 121.19-6.92Q120.77-6.70 120.46-6.29Q120.16-5.88 119.99-5.29Q119.82-4.70 119.82-3.97L119.82-3.97Q119.82-3.23 119.99-2.63Q120.16-2.04 120.46-1.61Q120.77-1.19 121.19-0.96Q121.62-0.73 122.15-0.73ZM130.21 0L130.21-7.87L131.24-7.87L134.09-2.93L134.94-1.30L134.99-1.30Q134.95-1.90 134.91-2.54Q134.87-3.18 134.87-3.80L134.87-3.80L134.87-7.87L135.82-7.87L135.82 0L134.78 0L131.93-4.96L131.08-6.58L131.03-6.58Q131.08-5.98 131.12-5.36Q131.16-4.74 131.16-4.12L131.16-4.12L131.16 0L130.21 0ZM145.82-1.02L146.42-1.72Q146.84-1.27 147.41-1.00Q147.98-0.73 148.60-0.73L148.60-0.73Q149.38-0.73 149.81-1.09Q150.24-1.44 150.24-2.02L150.24-2.02Q150.24-2.32 150.14-2.53Q150.04-2.74 149.86-2.89Q149.69-3.04 149.45-3.16Q149.21-3.28 148.93-3.41L148.93-3.41L147.80-3.90Q147.53-4.02 147.24-4.19Q146.95-4.36 146.72-4.60Q146.50-4.84 146.35-5.17Q146.21-5.50 146.21-5.93L146.21-5.93Q146.21-6.37 146.39-6.76Q146.58-7.14 146.91-7.42Q147.24-7.70 147.69-7.86Q148.14-8.02 148.68-8.02L148.68-8.02Q149.39-8.02 149.99-7.75Q150.59-7.48 151.01-7.04L151.01-7.04L150.47-6.40Q150.11-6.74 149.67-6.94Q149.23-7.14 148.68-7.14L148.68-7.14Q148.02-7.14 147.62-6.83Q147.22-6.53 147.22-5.99L147.22-5.99Q147.22-5.70 147.33-5.50Q147.44-5.30 147.64-5.15Q147.83-5.00 148.06-4.89Q148.28-4.78 148.52-4.68L148.52-4.68L149.64-4.20Q149.98-4.06 150.28-3.87Q150.58-3.68 150.79-3.44Q151.01-3.19 151.13-2.86Q151.26-2.53 151.26-2.10L151.26-2.10Q151.26-1.63 151.07-1.22Q150.89-0.82 150.54-0.51Q150.19-0.20 149.70-0.03Q149.21 0.14 148.58 0.14L148.58 0.14Q147.76 0.14 147.05-0.17Q146.34-0.48 145.82-1.02L145.82-1.02ZM155.81 0L155.81-7.87L156.98-7.87L158.51-3.65L159.08-2.04L159.13-2.04L159.68-3.65L161.20-7.87L162.37-7.87L162.37 0L161.42 0L161.42-4.33Q161.42-4.86 161.47-5.50Q161.51-6.13 161.56-6.66L161.56-6.66L161.51-6.66L160.87-4.91L159.36-0.79L158.80-0.79L157.27-4.91L156.65-6.66L156.60-6.66Q156.64-6.13 156.68-5.50Q156.73-4.86 156.73-4.33L156.73-4.33L156.73 0L155.81 0ZM168.52-3.20L170.88-3.20L170.51-4.40Q170.29-5.06 170.10-5.72Q169.91-6.37 169.72-7.06L169.72-7.06L169.67-7.06Q169.49-6.37 169.30-5.72Q169.10-5.06 168.89-4.40L168.89-4.40L168.52-3.20ZM171.88 0L171.13-2.40L168.26-2.40L167.51 0L166.49 0L169.15-7.87L170.28-7.87L172.94 0L171.88 0ZM178.06-7.07L178.06-4.14L179.38-4.14Q180.30-4.14 180.79-4.52Q181.28-4.90 181.28-5.66L181.28-5.66Q181.28-6.44 180.79-6.76Q180.30-7.07 179.38-7.07L179.38-7.07L178.06-7.07ZM182.51 0L181.38 0L179.48-3.32L178.06-3.32L178.06 0L177.06 0L177.06-7.87L179.52-7.87Q180.12-7.87 180.63-7.76Q181.14-7.64 181.51-7.38Q181.87-7.12 182.08-6.70Q182.28-6.28 182.28-5.66L182.28-5.66Q182.28-4.74 181.80-4.19Q181.32-3.64 180.52-3.43L180.52-3.43L182.51 0ZM188.42 0L188.42-7.03L186.05-7.03L186.05-7.87L191.81-7.87L191.81-7.03L189.43-7.03L189.43 0L188.42 0ZM203.28 0L203.28-7.03L200.90-7.03L200.90-7.87L206.66-7.87L206.66-7.03L204.29-7.03L204.29 0L203.28 0ZM211.08 0L211.08-7.87L215.62-7.87L215.62-7.03L212.08-7.03L212.08-4.56L215.06-4.56L215.06-3.71L212.08-3.71L212.08-0.85L215.74-0.85L215.74 0L211.08 0ZM219.95-3.94L219.95-3.94Q219.95-4.88 220.21-5.64Q220.48-6.40 220.94-6.92Q221.41-7.45 222.05-7.73Q222.70-8.02 223.45-8.02L223.45-8.02Q224.17-8.02 224.71-7.72Q225.25-7.43 225.60-7.04L225.60-7.04L225.04-6.41Q224.72-6.74 224.35-6.94Q223.97-7.14 223.46-7.14L223.46-7.14Q222.90-7.14 222.44-6.92Q221.99-6.70 221.66-6.28Q221.34-5.87 221.16-5.28Q220.98-4.69 220.98-3.96L220.98-3.96Q220.98-3.22 221.15-2.62Q221.33-2.03 221.64-1.61Q221.95-1.19 222.40-0.96Q222.85-0.73 223.42-0.73L223.42-0.73Q223.99-0.73 224.42-0.96Q224.84-1.19 225.23-1.61L225.23-1.61L225.79-1.00Q225.32-0.46 224.74-0.16Q224.15 0.14 223.39 0.14L223.39 0.14Q222.65 0.14 222.02-0.13Q221.39-0.41 220.93-0.93Q220.46-1.45 220.21-2.21Q219.95-2.98 219.95-3.94ZM230.26 0L230.26-7.87L231.25-7.87L231.25-4.57L234.91-4.57L234.91-7.87L235.92-7.87L235.92 0L234.91 0L234.91-3.71L231.25-3.71L231.25 0L230.26 0Z" transform="translate(-1.08, 8.016)"></path></g></g></g></g></g></g><mask id="439e6a1d-c48e-4502-9705-b1df06a34489"><g fill="white"><g><rect fill-opacity="1" stroke-width="2" x="0" y="0" width="122.5" height="122.59807846277022" class="image-rect"></rect> <svg x="0" y="0" width="122.5" height="122.59807846277022" filtersec="colorsb5745786347" class="image-svg-svg primary" style="overflow: visible;"><svg xmlns="http://www.w3.org/2000/svg" viewBox="5.015323638916016 4.975105285644531 89.96699523925781 90.03902435302734" x="0px" y="0px"><path d="m 49.998819,4.9751055 c -24.821867,0 -44.9834934,20.1710675 -44.9834934,45.0195135 0,24.848447 20.1616264,45.019514 44.9834934,45.019514 24.821866,0 44.983493,-20.171067 44.983493,-45.019514 0,-24.848446 -20.161627,-45.0195135 -44.983493,-45.0195135 z m 0,3.0318545 c 23.226908,0 42.019464,18.787331 42.019464,41.987659 0,23.200328 -18.792556,41.987659 -42.019464,41.987659 -23.226908,0 -42.0194648,-18.787331 -42.0194648,-41.987659 0,-23.200328 18.7925568,-41.987659 42.0194648,-41.987659 z" color="#000"></path></svg></svg> </g></g> <g transform="translate(-45.964996337890625,38.001041412353516)"><rect fill="black" fill-opacity="1" x="-3.5" y="-3.5" width="221.42999267578125" height="39.44000244140625"></rect><rect fill="black" fill-opacity="1" x="-3.5" y="-3.5" transform="translate(-10.205001831054688,37.44000244140625)" width="241.83999633789062" height="15.160000801086426"></rect></g><g transform="translate(-45.964996337890625,38.001041412353516)" fill="black"><g data-gra="path-name" fill-rule="" class="tp-name" transform="translate(0,0)"><g transform="scale(1)"><g><path d="M25.29-26.59C22.18-31.23 18.27-31.95 13.77-31.95 8.59-31.95 1.67-29.88 1.8-23.22 1.8-17.41 7.69-16.25 13.46-15.12 18.63-14.13 23.85-13.09 23.8-8.37 23.8-2.79 17.64-1.71 13.77-1.71 9.9-1.71 4.95-3.6 3.01-7.42L0.85-6.34C3.28-1.53 8.87 0.49 13.77 0.49 19.04 0.49 26.19-1.21 26.23-8.32 26.23-15.12 19.93-16.2 13.86-17.37 8.55-18.36 4.23-19.3 4.23-23.31 4.23-28.35 10.08-29.7 13.77-29.7 17.32-29.65 21.02-29.11 23.31-25.43ZM66.55 0L66.55-13.32C66.55-18.86 62.69-22.68 57.24-22.68 53.82-22.68 50.35-20.84 49-17.19 47.7-21.15 44.14-22.68 40.77-22.68 37.89-22.68 35.05-21.46 33.52-18.54L33.48-22.23 31.41-22.23 31.41 0 33.61 0 33.61-13.18C33.61-17.46 36.49-20.56 40.72-20.56 44.95-20.56 47.88-17.46 47.88-13.18L47.88 0 50.08 0 50.08-13.18C50.08-17.46 53.01-20.61 57.24-20.61 61.47-20.61 64.35-17.59 64.35-13.32L64.35 0ZM91.93-22.23L91.93-17.37C90.09-20.84 86.44-22.5 82.84-22.5 76.63-22.5 71.55-17.91 71.55-11.12 71.55-4.32 76.63 0.36 82.84 0.36 86.44 0.36 89.77-1.26 91.93-4.72L91.93 0 94.14 0C94.14-7.42 94.14-14.8 94.14-22.23ZM82.84-20.38C95.22-20.38 95.22-1.8 82.84-1.8 77.8-1.8 73.75-5.54 73.75-11.12 73.75-16.7 77.8-20.38 82.84-20.38ZM100.12-22.23L100.12 0 102.33 0 102.33-12.96C102.33-17.01 105.52-20.34 109.66-20.38 110.97-20.38 112.27-20.07 113.44-19.35L114.43-21.15C112.95-22.05 111.33-22.5 109.66-22.45 106.83-22.45 103.68-21.29 102.28-18.27L102.19-22.23ZM122.08-28.71L122.08-22.23 117.36-22.23 117.36-20.38 122.08-20.38 122.08-6.84C122.08-2.48 123.61 0.32 128.34 0.32 129.73 0.32 131.13-0.14 132.52-0.81L131.76-2.61C130.63-2.07 129.42-1.71 128.34-1.71 124.87-1.71 124.24-3.82 124.24-6.84L124.24-20.38 131.8-20.38 131.8-22.23 124.24-22.23 124.24-28.93ZM139.09-22.32L139.09 0 136.89 0 136.89-22.32ZM136.26-29.47C136.26-27.13 139.81-27.13 139.81-29.47 139.81-31.81 136.26-31.81 136.26-29.47ZM145.39-22.23L145.39 0 147.6 0 147.6-12.38C147.6-16.96 150.79-20.43 155.38-20.47 160.2-20.52 163.3-17.82 163.3-12.78L163.3 0 165.51 0 165.51-12.82C165.51-18.99 161.41-22.63 155.47-22.63 152.37-22.59 149.26-21.33 147.55-18.27L147.55-22.23ZM181.3 0.32C184.86 0.32 188.73-1.13 190.89-3.96L189.31-5.22C187.65-3.01 184.23-1.84 181.3-1.84 176.71-1.84 172.71-4.86 172.26-10.08L192.28-10.08C193.14-18.77 187.56-22.59 181.3-22.59 175.05-22.59 170.01-17.77 170.01-11.12 170.01-4.05 175.05 0.32 181.3 0.32ZM172.26-12.01C172.75-17.46 176.71-20.56 181.3-20.56 186.66-20.56 190.26-17.5 190.3-12.01ZM198.76-22.23L196.11-22.23 196.11-22.14 204.07-11.52 195.48-0.09 195.48 0 198.09 0 205.38-9.95 212.67 0 215.28 0 215.28-0.09 206.69-11.52 214.65-22.14 214.65-22.23 211.99-22.23 205.38-13.14Z" transform="translate(-0.8500000238418579, 31.950000762939453)"></path></g>       </g></g> <g data-gra="path-slogan" fill-rule="" class="tp-slogan" transform="translate(-10.205001831054688,37.44000244140625)" fill="white">  <g transform="scale(1, 1)"><g transform="scale(1)"><path d="M1.08 0L1.08-7.87L2.11-7.87L4.96-2.93L5.81-1.30L5.86-1.30Q5.82-1.90 5.78-2.54Q5.74-3.18 5.74-3.80L5.74-3.80L5.74-7.87L6.68-7.87L6.68 0L5.65 0L2.80-4.96L1.94-6.58L1.90-6.58Q1.94-5.98 1.99-5.36Q2.03-4.74 2.03-4.12L2.03-4.12L2.03 0L1.08 0ZM11.84 0L11.84-7.87L16.38-7.87L16.38-7.03L12.84-7.03L12.84-4.56L15.83-4.56L15.83-3.71L12.84-3.71L12.84-0.85L16.50-0.85L16.50 0L11.84 0ZM20.27 0L22.56-4.07L20.42-7.87L21.53-7.87L22.60-5.86Q22.75-5.58 22.89-5.32Q23.03-5.06 23.21-4.72L23.21-4.72L23.26-4.72Q23.42-5.06 23.55-5.32Q23.68-5.58 23.82-5.86L23.82-5.86L24.86-7.87L25.92-7.87L23.77-4.02L26.06 0L24.96 0L23.81-2.12Q23.65-2.41 23.49-2.72Q23.33-3.02 23.14-3.38L23.14-3.38L23.09-3.38Q22.92-3.02 22.76-2.72Q22.61-2.41 22.46-2.12L22.46-2.12L21.32 0L20.27 0ZM31.72 0L31.72-7.03L29.34-7.03L29.34-7.87L35.10-7.87L35.10-7.03L32.72-7.03L32.72 0L31.72 0ZM44.48-3.94L44.48-3.94Q44.48-4.88 44.75-5.64Q45.02-6.40 45.51-6.92Q46.00-7.45 46.66-7.73Q47.32-8.02 48.11-8.02L48.11-8.02Q48.92-8.02 49.47-7.71Q50.02-7.40 50.36-7.04L50.36-7.04L49.80-6.41Q49.50-6.72 49.11-6.93Q48.72-7.14 48.12-7.14L48.12-7.14Q47.52-7.14 47.04-6.92Q46.56-6.70 46.22-6.28Q45.89-5.87 45.70-5.28Q45.52-4.69 45.52-3.96L45.52-3.96Q45.52-3.22 45.69-2.62Q45.86-2.03 46.19-1.61Q46.52-1.19 47.01-0.96Q47.50-0.73 48.13-0.73L48.13-0.73Q48.55-0.73 48.93-0.86Q49.31-0.98 49.55-1.20L49.55-1.20L49.55-3.25L47.88-3.25L47.88-4.08L50.46-4.08L50.46-0.77Q50.08-0.37 49.45-0.11Q48.82 0.14 48.02 0.14L48.02 0.14Q47.24 0.14 46.60-0.13Q45.95-0.41 45.48-0.93Q45.01-1.45 44.75-2.21Q44.48-2.98 44.48-3.94ZM55.34 0L55.34-7.87L59.88-7.87L59.88-7.03L56.34-7.03L56.34-4.56L59.33-4.56L59.33-3.71L56.34-3.71L56.34-0.85L60.00-0.85L60.00 0L55.34 0ZM64.67 0L64.67-7.87L65.70-7.87L68.54-2.93L69.40-1.30L69.44-1.30Q69.41-1.90 69.37-2.54Q69.32-3.18 69.32-3.80L69.32-3.80L69.32-7.87L70.27-7.87L70.27 0L69.24 0L66.38-4.96L65.53-6.58L65.48-6.58Q65.53-5.98 65.57-5.36Q65.62-4.74 65.62-4.12L65.62-4.12L65.62 0L64.67 0ZM75.43 0L75.43-7.87L79.97-7.87L79.97-7.03L76.43-7.03L76.43-4.56L79.42-4.56L79.42-3.71L76.43-3.71L76.43-0.85L80.09-0.85L80.09 0L75.43 0ZM85.75-7.07L85.75-4.14L87.07-4.14Q88.00-4.14 88.49-4.52Q88.98-4.90 88.98-5.66L88.98-5.66Q88.98-6.44 88.49-6.76Q88.00-7.07 87.07-7.07L87.07-7.07L85.75-7.07ZM90.20 0L89.08 0L87.18-3.32L85.75-3.32L85.75 0L84.76 0L84.76-7.87L87.22-7.87Q87.82-7.87 88.33-7.76Q88.84-7.64 89.20-7.38Q89.57-7.12 89.77-6.70Q89.98-6.28 89.98-5.66L89.98-5.66Q89.98-4.74 89.50-4.19Q89.02-3.64 88.21-3.43L88.21-3.43L90.20 0ZM95.59-3.20L97.96-3.20L97.58-4.40Q97.37-5.06 97.18-5.72Q96.98-6.37 96.79-7.06L96.79-7.06L96.74-7.06Q96.56-6.37 96.37-5.72Q96.18-5.06 95.96-4.40L95.96-4.40L95.59-3.20ZM98.95 0L98.21-2.40L95.34-2.40L94.58 0L93.56 0L96.23-7.87L97.36-7.87L100.02 0L98.95 0ZM105.29 0L105.29-7.03L102.91-7.03L102.91-7.87L108.67-7.87L108.67-7.03L106.30-7.03L106.30 0L105.29 0ZM113.09 0L113.09-7.87L114.08-7.87L114.08 0L113.09 0ZM122.15 0.14L122.15 0.14Q121.40 0.14 120.79-0.14Q120.17-0.43 119.72-0.97Q119.28-1.50 119.03-2.26Q118.79-3.02 118.79-3.97L118.79-3.97Q118.79-4.92 119.03-5.67Q119.28-6.42 119.72-6.94Q120.17-7.46 120.79-7.74Q121.40-8.02 122.15-8.02L122.15-8.02Q122.89-8.02 123.51-7.73Q124.13-7.45 124.58-6.93Q125.03-6.41 125.27-5.66Q125.52-4.91 125.52-3.97L125.52-3.97Q125.52-3.02 125.27-2.26Q125.03-1.50 124.58-0.97Q124.13-0.43 123.51-0.14Q122.89 0.14 122.15 0.14ZM122.15-0.73L122.15-0.73Q122.68-0.73 123.10-0.96Q123.53-1.19 123.83-1.61Q124.14-2.04 124.31-2.63Q124.48-3.23 124.48-3.97L124.48-3.97Q124.48-4.70 124.31-5.29Q124.14-5.88 123.83-6.29Q123.53-6.70 123.10-6.92Q122.68-7.14 122.15-7.14L122.15-7.14Q121.62-7.14 121.19-6.92Q120.77-6.70 120.46-6.29Q120.16-5.88 119.99-5.29Q119.82-4.70 119.82-3.97L119.82-3.97Q119.82-3.23 119.99-2.63Q120.16-2.04 120.46-1.61Q120.77-1.19 121.19-0.96Q121.62-0.73 122.15-0.73ZM130.21 0L130.21-7.87L131.24-7.87L134.09-2.93L134.94-1.30L134.99-1.30Q134.95-1.90 134.91-2.54Q134.87-3.18 134.87-3.80L134.87-3.80L134.87-7.87L135.82-7.87L135.82 0L134.78 0L131.93-4.96L131.08-6.58L131.03-6.58Q131.08-5.98 131.12-5.36Q131.16-4.74 131.16-4.12L131.16-4.12L131.16 0L130.21 0ZM145.82-1.02L146.42-1.72Q146.84-1.27 147.41-1.00Q147.98-0.73 148.60-0.73L148.60-0.73Q149.38-0.73 149.81-1.09Q150.24-1.44 150.24-2.02L150.24-2.02Q150.24-2.32 150.14-2.53Q150.04-2.74 149.86-2.89Q149.69-3.04 149.45-3.16Q149.21-3.28 148.93-3.41L148.93-3.41L147.80-3.90Q147.53-4.02 147.24-4.19Q146.95-4.36 146.72-4.60Q146.50-4.84 146.35-5.17Q146.21-5.50 146.21-5.93L146.21-5.93Q146.21-6.37 146.39-6.76Q146.58-7.14 146.91-7.42Q147.24-7.70 147.69-7.86Q148.14-8.02 148.68-8.02L148.68-8.02Q149.39-8.02 149.99-7.75Q150.59-7.48 151.01-7.04L151.01-7.04L150.47-6.40Q150.11-6.74 149.67-6.94Q149.23-7.14 148.68-7.14L148.68-7.14Q148.02-7.14 147.62-6.83Q147.22-6.53 147.22-5.99L147.22-5.99Q147.22-5.70 147.33-5.50Q147.44-5.30 147.64-5.15Q147.83-5.00 148.06-4.89Q148.28-4.78 148.52-4.68L148.52-4.68L149.64-4.20Q149.98-4.06 150.28-3.87Q150.58-3.68 150.79-3.44Q151.01-3.19 151.13-2.86Q151.26-2.53 151.26-2.10L151.26-2.10Q151.26-1.63 151.07-1.22Q150.89-0.82 150.54-0.51Q150.19-0.20 149.70-0.03Q149.21 0.14 148.58 0.14L148.58 0.14Q147.76 0.14 147.05-0.17Q146.34-0.48 145.82-1.02L145.82-1.02ZM155.81 0L155.81-7.87L156.98-7.87L158.51-3.65L159.08-2.04L159.13-2.04L159.68-3.65L161.20-7.87L162.37-7.87L162.37 0L161.42 0L161.42-4.33Q161.42-4.86 161.47-5.50Q161.51-6.13 161.56-6.66L161.56-6.66L161.51-6.66L160.87-4.91L159.36-0.79L158.80-0.79L157.27-4.91L156.65-6.66L156.60-6.66Q156.64-6.13 156.68-5.50Q156.73-4.86 156.73-4.33L156.73-4.33L156.73 0L155.81 0ZM168.52-3.20L170.88-3.20L170.51-4.40Q170.29-5.06 170.10-5.72Q169.91-6.37 169.72-7.06L169.72-7.06L169.67-7.06Q169.49-6.37 169.30-5.72Q169.10-5.06 168.89-4.40L168.89-4.40L168.52-3.20ZM171.88 0L171.13-2.40L168.26-2.40L167.51 0L166.49 0L169.15-7.87L170.28-7.87L172.94 0L171.88 0ZM178.06-7.07L178.06-4.14L179.38-4.14Q180.30-4.14 180.79-4.52Q181.28-4.90 181.28-5.66L181.28-5.66Q181.28-6.44 180.79-6.76Q180.30-7.07 179.38-7.07L179.38-7.07L178.06-7.07ZM182.51 0L181.38 0L179.48-3.32L178.06-3.32L178.06 0L177.06 0L177.06-7.87L179.52-7.87Q180.12-7.87 180.63-7.76Q181.14-7.64 181.51-7.38Q181.87-7.12 182.08-6.70Q182.28-6.28 182.28-5.66L182.28-5.66Q182.28-4.74 181.80-4.19Q181.32-3.64 180.52-3.43L180.52-3.43L182.51 0ZM188.42 0L188.42-7.03L186.05-7.03L186.05-7.87L191.81-7.87L191.81-7.03L189.43-7.03L189.43 0L188.42 0ZM203.28 0L203.28-7.03L200.90-7.03L200.90-7.87L206.66-7.87L206.66-7.03L204.29-7.03L204.29 0L203.28 0ZM211.08 0L211.08-7.87L215.62-7.87L215.62-7.03L212.08-7.03L212.08-4.56L215.06-4.56L215.06-3.71L212.08-3.71L212.08-0.85L215.74-0.85L215.74 0L211.08 0ZM219.95-3.94L219.95-3.94Q219.95-4.88 220.21-5.64Q220.48-6.40 220.94-6.92Q221.41-7.45 222.05-7.73Q222.70-8.02 223.45-8.02L223.45-8.02Q224.17-8.02 224.71-7.72Q225.25-7.43 225.60-7.04L225.60-7.04L225.04-6.41Q224.72-6.74 224.35-6.94Q223.97-7.14 223.46-7.14L223.46-7.14Q222.90-7.14 222.44-6.92Q221.99-6.70 221.66-6.28Q221.34-5.87 221.16-5.28Q220.98-4.69 220.98-3.96L220.98-3.96Q220.98-3.22 221.15-2.62Q221.33-2.03 221.64-1.61Q221.95-1.19 222.40-0.96Q222.85-0.73 223.42-0.73L223.42-0.73Q223.99-0.73 224.42-0.96Q224.84-1.19 225.23-1.61L225.23-1.61L225.79-1.00Q225.32-0.46 224.74-0.16Q224.15 0.14 223.39 0.14L223.39 0.14Q222.65 0.14 222.02-0.13Q221.39-0.41 220.93-0.93Q220.46-1.45 220.21-2.21Q219.95-2.98 219.95-3.94ZM230.26 0L230.26-7.87L231.25-7.87L231.25-4.57L234.91-4.57L234.91-7.87L235.92-7.87L235.92 0L234.91 0L234.91-3.71L231.25-3.71L231.25 0L230.26 0Z" transform="translate(-1.08, 8.016)"></path></g></g></g></g></mask><defs v-gra="od"></defs></svg>